<?xml version="1.0" encoding="UTF-8" standalone="no"?>
<!-- Generator: Adobe Illustrator 19.0.0, SVG Export Plug-In . SVG Version: 6.00 Build 0)  -->

<svg
   xmlns:dc="http://purl.org/dc/elements/1.1/"
   xmlns:cc="http://creativecommons.org/ns#"
   xmlns:rdf="http://www.w3.org/1999/02/22-rdf-syntax-ns#"
   xmlns:svg="http://www.w3.org/2000/svg"
   xmlns="http://www.w3.org/2000/svg"
   xmlns:sodipodi="http://sodipodi.sourceforge.net/DTD/sodipodi-0.dtd"
   xmlns:inkscape="http://www.inkscape.org/namespaces/inkscape"
   version="1.1"
   id="Capa_1"
   x="0px"
   y="0px"
   viewBox="0 0 60 60"
   style="enable-background:new 0 0 60 60;"
   xml:space="preserve"
   sodipodi:docname="piano-white.svg"
   inkscape:version="0.92.4 (unknown)"><metadata
   id="metadata4632"><rdf:RDF><cc:Work
       rdf:about=""><dc:format>image/svg+xml</dc:format><dc:type
         rdf:resource="http://purl.org/dc/dcmitype/StillImage" /><dc:title></dc:title></cc:Work></rdf:RDF></metadata><defs
   id="defs4630" /><sodipodi:namedview
   pagecolor="#ffffff"
   bordercolor="#666666"
   borderopacity="1"
   objecttolerance="10"
   gridtolerance="10"
   guidetolerance="10"
   inkscape:pageopacity="0"
   inkscape:pageshadow="2"
   inkscape:window-width="1920"
   inkscape:window-height="986"
   id="namedview4628"
   showgrid="false"
   inkscape:zoom="13.166667"
   inkscape:cx="29.924051"
   inkscape:cy="30"
   inkscape:window-x="0"
   inkscape:window-y="0"
   inkscape:window-maximized="1"
   inkscape:current-layer="Capa_1" />
<path
   d="M52.103,27.832C46.934,27.159,41,25.206,41,16v-0.5C41,6.953,34.047,0,25.5,0h-9C7.953,0,1,6.953,1,15.5V39v2v19h8h2h6h2h6  h2h6h2h6h2h6h2h8V41v-2v-3.376C59,31.693,56.035,28.343,52.103,27.832z M9,58H3V41h4v13h2V58z M17,58h-6v-4h2V41h2v13h2V58z M25,58  h-6v-4h2V41h2v13h2V58z M33,58h-6v-4h2V41h2v13h2V58z M41,58h-6v-4h2V41h2v13h2V58z M49,58h-6v-4h2V41h2v13h2V58z M57,58h-6v-4h2V41  h4V58z M53,39h-2h-2h-2h-2h-2h-2h-2h-2h-2h-2h-2h-2h-2h-2h-2h-2h-2h-2h-2h-2h-2H9H7H3V15.5C3,8.056,9.056,2,16.5,2h9  C32.944,2,39,8.056,39,15.5V16c0,8.17,4.202,12.689,12.845,13.815C54.784,30.197,57,32.695,57,35.624V39H53z"
   id="path4595"
   style="stroke:none;stroke-opacity:1;fill:#dadaff;fill-opacity:1" />
<g
   id="g4597">
</g>
<g
   id="g4599">
</g>
<g
   id="g4601">
</g>
<g
   id="g4603">
</g>
<g
   id="g4605">
</g>
<g
   id="g4607">
</g>
<g
   id="g4609">
</g>
<g
   id="g4611">
</g>
<g
   id="g4613">
</g>
<g
   id="g4615">
</g>
<g
   id="g4617">
</g>
<g
   id="g4619">
</g>
<g
   id="g4621">
</g>
<g
   id="g4623">
</g>
<g
   id="g4625">
</g>
</svg>